PathFileType	4	(X/Y/Z)	TVC_58_BWA_05_walk_RCNL2025.trc
DataRate	CameraRate	NumFrames	NumMarkers	Units	OrigDataRate	OrigDataStartFrame	OrigNumFrames
100	100	7	27	mm	100	46	366
Frame#	Time	R_Shoulder			L_Shoulder			C7			J_Notch			R_Elbow			L_Elbow			R_Wrist			L_Wrist			R_Asis			L_Asis			R_Psis			L_Psis			Sacral			Thoracic			Sternum			R_Thigh_Lateral			R_Knee_Lateral			R_Shank_Lateral			R_Ankle_Lateral			R_Heel			R_Toe			L_Thigh_Lateral			L_Knee_Lateral			L_Shank_Lateral			L_Ankle_Lateral			L_Heel			L_Toe		
		X1	Y1	Z1	X2	Y2	Z2	X3	Y3	Z3	X4	Y4	Z4	X5	Y5	Z5	X6	Y6	Z6	X7	Y7	Z7	X8	Y8	Z8	X9	Y9	Z9	X10	Y10	Z10	X11	Y11	Z11	X12	Y12	Z12	X13	Y13	Z13	X14	Y14	Z14	X15	Y15	Z15	X16	Y16	Z16	X17	Y17	Z17	X18	Y18	Z18	X19	Y19	Z19	X20	Y20	Z20	X21	Y21	Z21	X22	Y22	Z22	X23	Y23	Z23	X24	Y24	Z24	X25	Y25	Z25	X26	Y26	Z26	X27	Y27	Z27
46	0.45000000	-1613.833252	1337.149414	360.939056	-1598.462402	1349.029297	3.147939	-1666.800171	1414.032715	172.014389	-1523.076782	1316.000244	185.243835	-1647.065552	1017.536987	422.633270	-1652.865601	1029.882080	-69.966286	-1568.604065	781.720306	459.122833	-1548.084595	805.770691	-122.851543	-1502.884521	903.263489	326.989380	-1489.321167	907.060486	16.729408	-1728.252319	934.118774	221.247986	-1727.945190	938.411865	110.649796	-1728.098755	936.265320	165.948891	-1718.958252	1108.154785	167.573776	-1418.826660	1080.830200	180.017212	-1494.127197	694.997009	402.402557	-1439.486572	467.007904	325.071991	-1571.676636	312.198730	374.393402	-1736.403687	181.295486	290.776459	-1777.697998	201.675461	230.976318	-1655.077759	80.231476	279.017426	-1564.726074	662.222473	-57.194862	-1521.435303	461.119507	57.043407	-1557.353638	270.382019	14.685036	-1614.455444	59.249821	116.187157	-1661.843872	56.848236	164.980133	-1479.049194	42.980686	149.393051
47	0.46000000	-1606.747559	1337.504150	360.808777	-1589.511353	1349.607422	3.123593	-1658.604004	1414.594482	171.655029	-1515.222778	1316.083252	185.496643	-1642.408447	1018.289673	422.618622	-1642.093140	1030.585327	-71.119896	-1565.633972	782.080170	460.608994	-1536.103638	806.724365	-122.607727	-1495.984497	904.605530	327.340607	-1483.184570	907.065430	15.892101	-1721.339111	934.840576	221.351959	-1721.258179	938.771240	111.034393	-1721.298645	936.805908	166.193176	-1711.674072	1108.874878	166.900589	-1412.048340	1081.004395	180.416260	-1483.228149	697.363037	402.397552	-1423.399048	470.976868	324.229156	-1550.216309	312.016052	374.688354	-1710.715454	175.159012	292.513092	-1753.248413	193.373016	232.780853	-1624.958252	78.123474	281.436035	-1558.787598	662.320618	-56.972115	-1518.958130	460.697144	57.189816	-1556.126587	270.244415	14.692697	-1614.326172	59.340221	116.228325	-1661.727295	57.092983	164.964661	-1479.024780	42.992619	149.407227
48	0.47000000	-1599.658203	1337.850098	360.685120	-1580.615845	1350.180054	3.124911	-1650.416016	1415.111206	171.325928	-1507.381958	1316.131592	185.748871	-1637.784180	1019.045105	422.619659	-1631.375000	1031.277466	-72.158356	-1562.570862	782.459351	461.977356	-1524.266418	807.634094	-122.294128	-1488.966064	905.937317	327.551392	-1477.136353	907.104004	15.030261	-1714.353882	935.555908	221.625107	-1714.545654	939.075745	111.495720	-1714.449768	937.315826	166.560413	-1704.390381	1109.540039	166.286499	-1405.298584	1081.215454	180.724869	-1472.550903	699.647827	402.401001	-1408.121704	474.951813	323.453613	-1529.260132	311.830994	375.134613	-1684.251221	168.142822	294.278015	-1728.058838	184.214340	234.772064	-1594.167358	75.478050	283.150757	-1553.305176	662.329041	-56.706276	-1516.465088	460.268860	57.386631	-1554.389771	270.030975	14.910609	-1614.194214	59.440525	116.274185	-1661.622192	57.356010	164.951797	-1479.001465	43.003979	149.416840
49	0.48000000	-1592.553833	1338.172607	360.568268	-1571.781982	1350.732788	3.147755	-1642.238159	1415.572510	171.028564	-1499.550171	1316.141602	185.994141	-1633.166016	1019.786255	422.632874	-1620.735107	1031.932739	-73.068756	-1559.412598	782.836548	463.225113	-1512.575256	808.486176	-121.915977	-1481.808228	907.209167	327.620972	-1471.126831	907.139404	14.201044	-1707.291748	936.247253	222.062210	-1707.796021	939.331360	112.024658	-1707.543884	937.789307	167.043434	-1697.098999	1110.139282	165.740341	-1398.544556	1081.430542	180.937027	-1462.145752	701.814087	402.429443	-1393.675049	478.840790	322.767395	-1508.847046	311.618347	375.758087	-1656.978882	160.402328	296.043060	-1702.092529	174.320435	236.914658	-1562.671753	72.490150	284.214203	-1548.283325	662.230347	-56.401207	-1513.956787	459.837341	57.629841	-1552.290039	269.750214	15.310309	-1614.060303	59.552696	116.324409	-1661.528320	57.636993	164.944794	-1478.976929	43.012451	149.423645
50	0.49000000	-1585.421387	1338.455200	360.459259	-1563.015747	1351.248291	3.188183	-1634.071777	1415.967407	170.764648	-1491.723267	1316.108032	186.226868	-1628.526611	1020.494629	422.654572	-1610.194458	1032.523438	-73.841736	-1556.157166	783.189819	464.351044	-1501.031616	809.265472	-121.479355	-1474.495605	908.374512	327.556549	-1465.109619	907.132751	13.455525	-1700.149780	936.897522	222.655411	-1701.000977	939.543884	112.614891	-1700.575378	938.220703	167.635151	-1689.792725	1110.660889	165.271240	-1391.755005	1081.616089	181.052307	-1452.047241	703.825928	402.500641	-1380.067261	482.548553	322.186249	-1488.904419	311.285828	376.551392	-1628.873047	152.121384	297.777039	-1675.314575	163.836533	239.168411	-1530.458252	69.378021	284.686920	-1543.682373	662.019592	-56.062302	-1511.438477	459.404968	57.910664	-1550.016113	269.444183	15.830783	-1613.926514	59.678104	116.377762	-1661.443604	57.933994	164.946640	-1478.949219	43.015739	149.429428
51	0.50000000	-1578.247314	1338.680664	360.359833	-1554.322510	1351.707642	3.242622	-1625.918091	1416.284546	170.536194	-1483.896729	1316.024170	186.442444	-1623.839600	1021.150940	422.680725	-1599.770386	1033.022461	-74.471512	-1552.802734	783.497467	465.355255	-1489.635925	809.956207	-120.990856	-1467.018555	909.392334	327.372803	-1459.044067	907.045959	12.834136	-1692.926880	937.490234	223.394608	-1694.155396	939.718323	113.263107	-1693.541138	938.604279	168.328857	-1682.464966	1111.093506	164.888351	-1384.901611	1081.740479	181.075211	-1442.273926	705.646667	402.631409	-1367.298462	485.980164	321.720428	-1469.278931	310.717407	377.471252	-1599.925171	143.508148	299.447693	-1647.701050	152.934387	241.491898	-1497.546509	66.370171	284.628235	-1539.427124	661.705811	-55.697731	-1508.918823	458.973602	58.216480	-1547.763550	269.177948	16.390364	-1613.795044	59.817356	116.431938	-1661.365234	58.244293	164.959198	-1478.916870	43.011612	149.435852
52	0.51000000	-1571.017212	1338.832275	360.272644	-1545.707397	1352.091064	3.308056	-1617.777710	1416.512695	170.345490	-1476.066040	1315.882446	186.637344	-1619.079834	1021.736450	422.707245	-1589.476562	1033.403564	-74.955627	-1549.347595	783.738800	466.239029	-1478.387695	810.542938	-120.457161	-1459.373413	910.228638	327.090424	-1452.899048	906.845154	12.363970	-1685.623413	938.009399	224.267868	-1687.257080	939.857666	113.968918	-1686.440247	938.933533	169.118393	-1675.109863	1111.425903	164.600601	-1377.960449	1081.774902	181.013901	-1432.829956	707.237122	402.836029	-1355.361694	489.045471	321.375702	-1449.779663	309.814941	378.442841	-1570.153320	134.789322	301.022369	-1619.250610	141.811966	243.843826	-1463.998901	63.692066	284.091034	-1535.418457	661.311096	-55.319229	-1506.407959	458.544434	58.532276	-1545.705322	269.012482	16.905115	-1613.668335	59.970295	116.483757	-1661.291138	58.565342	164.982651	-1478.879150	42.998005	149.444214
